name Run_500 01_newCOP3_v24.mot
datacolumns 19
datarows 17
range 2.75416700 2.77083300
endheader
                time	   R_ground_force_vx	   R_ground_force_vy	   R_ground_force_vz	   R_ground_force_px	   R_ground_force_py	   R_ground_force_pz	   L_ground_force_vx	   L_ground_force_vy	   L_ground_force_vz	   L_ground_force_px	   L_ground_force_py	   L_ground_force_pz	   R_ground_torque_x	   R_ground_torque_y	   R_ground_torque_z	   L_ground_torque_x	   L_ground_torque_y	   L_ground_torque_z	
          2.75416700	         -7.19942400	         19.36604100	        -10.75008700	          1.34811900	          0.00000000	         -0.19702100	          0.00000000	          0.00000000	          0.00000000	          0.00000000	          0.00000000	          0.00000000	          0.00000000	         -2.79314800	          0.00000000	          0.00000000	          0.00000000	          0.00000000	
          2.75520800	         -8.54936700	         22.04385400	        -11.85272000	          1.35631300	          0.00000000	         -0.20429800	          0.00000000	          0.00000000	          0.00000000	          0.00000000	          0.00000000	          0.00000000	          0.00000000	         -2.41642300	          0.00000000	          0.00000000	          0.00000000	          0.00000000	
          2.75625000	        -10.09637400	         25.21259300	        -13.03085300	          1.36443600	          0.00000000	         -0.21061700	          0.00000000	          0.00000000	          0.00000000	          0.00000000	          0.00000000	          0.00000000	          0.00000000	         -2.02161800	          0.00000000	          0.00000000	          0.00000000	          0.00000000	
          2.75729200	        -11.87264800	         28.94319300	        -14.28721600	          1.37237600	          0.00000000	         -0.21602900	          0.00000000	          0.00000000	          0.00000000	          0.00000000	          0.00000000	          0.00000000	          0.00000000	         -1.60979400	          0.00000000	          0.00000000	          0.00000000	          0.00000000	
          2.75833300	        -13.91280400	         33.31263700	        -15.62422300	          1.38003300	          0.00000000	         -0.22061200	          0.00000000	          0.00000000	          0.00000000	          0.00000000	          0.00000000	          0.00000000	          0.00000000	         -1.18211900	          0.00000000	          0.00000000	          0.00000000	          0.00000000	
          2.75937500	        -16.25333400	         38.40365600	        -17.04387700	          1.38731800	          0.00000000	         -0.22446000	          0.00000000	          0.00000000	          0.00000000	          0.00000000	          0.00000000	          0.00000000	          0.00000000	         -0.73986300	          0.00000000	          0.00000000	          0.00000000	          0.00000000	
          2.76041700	        -18.93197100	         44.30420700	        -18.54767800	          1.39416000	          0.00000000	         -0.22767300	          0.00000000	          0.00000000	          0.00000000	          0.00000000	          0.00000000	          0.00000000	          0.00000000	         -0.28439700	          0.00000000	          0.00000000	          0.00000000	          0.00000000	
          2.76145800	        -21.98691900	         51.10669700	        -20.13651500	          1.40050900	          0.00000000	         -0.23034700	          0.00000000	          0.00000000	          0.00000000	          0.00000000	          0.00000000	          0.00000000	         -0.00000000	          0.18281200	         -0.00000000	          0.00000000	          0.00000000	          0.00000000	
          2.76250000	        -25.45600100	         58.90691800	        -21.81056200	          1.40633600	          0.00000000	         -0.23257400	          0.00000000	          0.00000000	          0.00000000	          0.00000000	          0.00000000	          0.00000000	         -0.00000000	          0.66020600	         -0.00000000	          0.00000000	          0.00000000	          0.00000000	
          2.76354200	        -29.37564800	         67.80268900	        -23.56918100	          1.41162800	          0.00000000	         -0.23443500	          0.00000000	          0.00000000	          0.00000000	          0.00000000	          0.00000000	          0.00000000	         -0.00000000	          1.14614000	         -0.00000000	          0.00000000	          0.00000000	          0.00000000	
          2.76458300	        -33.77979300	         77.89218900	        -25.41081000	          1.41638900	          0.00000000	         -0.23599900	          0.00000000	          0.00000000	          0.00000000	          0.00000000	          0.00000000	          0.00000000	         -0.00000000	          1.63888800	         -0.00000000	          0.00000000	          0.00000000	          0.00000000	
          2.76562500	        -38.69863500	         89.27201800	        -27.33286500	          1.42063500	          0.00000000	         -0.23732600	          0.00000000	          0.00000000	          0.00000000	          0.00000000	          0.00000000	          0.00000000	         -0.00000000	          2.13664900	         -0.00000000	          0.00000000	          0.00000000	          0.00000000	
          2.76666700	        -44.15729100	        102.03497300	        -29.33164800	          1.42439100	          0.00000000	         -0.23846700	          0.00000000	          0.00000000	          0.00000000	          0.00000000	          0.00000000	          0.00000000	         -0.00000000	          2.63755400	         -0.00000000	          0.00000000	          0.00000000	          0.00000000	
          2.76770800	        -50.17433200	        116.26760100	        -31.40226900	          1.42768800	          0.00000000	         -0.23946100	          0.00000000	          0.00000000	          0.00000000	          0.00000000	          0.00000000	          0.00000000	         -0.00000000	          3.13967400	         -0.00000000	          0.00000000	          0.00000000	          0.00000000	
          2.76875000	        -56.76027700	        132.04768400	        -33.53857000	          1.43056100	          0.00000000	         -0.24034300	          0.00000000	          0.00000000	          0.00000000	          0.00000000	          0.00000000	          0.00000000	         -0.00000000	          3.64102900	         -0.00000000	          0.00000000	          0.00000000	          0.00000000	
          2.76979200	        -63.91603500	        149.44155900	        -35.73307400	          1.43304300	          0.00000000	         -0.24113800	          0.00000000	          0.00000000	          0.00000000	          0.00000000	          0.00000000	          0.00000000	         -0.00000000	          4.13959500	         -0.00000000	          0.00000000	          0.00000000	          0.00000000	
          2.77083300	        -71.63136300	        168.50166300	        -37.97694000	          1.43517100	          0.00000000	         -0.24186800	          0.00000000	          0.00000000	          0.00000000	          0.00000000	          0.00000000	          0.00000000	         -0.00000000	          4.63331300	         -0.00000000	          0.00000000	          0.00000000	          0.00000000	
